<svg width="40" height="40" viewBox="0 0 40 40" fill="none" xmlns="http://www.w3.org/2000/svg">
<circle opacity="0.7" cx="20" cy="20" r="20" fill="#ECECEC"/>
<circle cx="20" cy="20" r="17.25" stroke="white" stroke-width="1.5"/>
<path d="M21.3267 12.7001L22.9349 14.3084C23.3255 14.6987 23.9587 14.6988 24.3492 14.3084L27.8847 10.7728L29.0185 11.9067L25.5155 15.4913C25.1328 15.883 25.1364 16.5099 25.5238 16.8972L27.1279 18.5013L20.8592 18.9308L21.3267 12.7001Z" fill="black" stroke="black"/>
<path d="M18.5039 27.1339L16.8956 25.5256C16.5051 25.1353 15.8719 25.1352 15.4814 25.5256L11.9459 29.0611L10.812 27.9273L14.3151 24.3427C14.6978 23.9509 14.6941 23.3241 14.3068 22.9368L12.7027 21.3327L18.9714 20.9032L18.5039 27.1339Z" fill="black" stroke="black"/>
</svg>
