<svg width="60" height="60" viewBox="0 0 60 60" fill="none" xmlns="http://www.w3.org/2000/svg">
<circle opacity="0.7" cx="30" cy="30" r="30" transform="matrix(-1 0 0 1 60 0)" fill="#ECECEC"/>
<circle cx="28" cy="28" r="27.25" transform="matrix(-1 0 0 1 58 2)" stroke="white" stroke-width="1.5"/>
<path d="M40.3102 39.0373C40.8076 38.3748 41.7478 38.2409 42.4103 38.7383C43.0728 39.2356 43.2067 40.1759 42.7093 40.8384L40.3102 39.0373ZM28.8766 14.6817V16.1817C20.986 16.1817 14.5895 22.5783 14.5895 30.4688H13.0895H11.5895C11.5895 20.9214 19.3292 13.1817 28.8766 13.1817V14.6817ZM13.0895 30.4688H14.5895C14.5895 38.3593 20.986 44.7559 28.8766 44.7559V46.2559V47.7559C19.3292 47.7559 11.5895 40.0162 11.5895 30.4688H13.0895ZM28.8766 46.2559V44.7559C33.5511 44.7559 37.7012 42.5125 40.3102 39.0373L41.5098 39.9378L42.7093 40.8384C39.5582 45.0359 34.5348 47.7559 28.8766 47.7559V46.2559ZM41.5098 20.9997L40.3102 21.9003C37.7012 18.4251 33.5511 16.1817 28.8766 16.1817V14.6817V13.1817C34.5348 13.1817 39.5582 15.9017 42.7093 20.0992L41.5098 20.9997Z" fill="black"/>
<path d="M46.9561 28.8955C47.271 28.9848 47.5858 28.7519 47.5929 28.4247L47.8169 17.7764C47.8256 17.3613 47.3531 17.1174 47.0192 17.3642L36.5503 25.1028C36.2165 25.3497 36.3118 25.8724 36.7112 25.9858L46.9561 28.8955Z" fill="black" stroke="black"/>
</svg>
